<?xml version="1.0"?>
<svg xmlns="http://www.w3.org/2000/svg" height="512px" viewBox="1 0 511.99925 511" width="512px"><g><path d="m257.007812 218.492188c21.539063 0 39 17.460937 39 39 0 21.535156-17.460937 38.996093-39 38.996093-21.539062 0-39-17.460937-39-38.996093 0-21.539063 17.460938-39 39-39zm0-74.996094c62.859376 0 113.996094 51.136718 113.996094 113.996094 0 62.855468-51.136718 113.996093-113.996094 113.996093-62.855468 0-113.996093-51.140625-113.996093-113.996093 0-62.859376 51.140625-113.996094 113.996093-113.996094zm0 39.996094c-40.800781 0-73.996093 33.195312-73.996093 74 0 40.800781 33.195312 73.996093 73.996093 73.996093 40.804688 0 73.996094-33.195312 73.996094-73.996093 0-40.804688-33.191406-74-73.996094-74zm185.292969 157.363281c-7.558593-8.054688-20.214843-8.457031-28.265625-.898438-34.777344 32.628907-90.347656 71.527344-157.589844 71.527344-97.101562 0-177.605468-83-209.863281-132.042969-8.769531-13.335937-8.769531-30.566406 0-43.902344 32.257813-49.042968 112.761719-132.042968 209.863281-132.042968 97.097657 0 177.109376 83.078125 209.078126 132.167968 8.636718 13.257813 8.636718 30.394532 0 43.652344-6.027344 9.253906-3.410157 21.644532 5.84375 27.671875 9.257812 6.027344 21.648437 3.410157 27.671874-5.84375 17.269532-26.519531 17.269532-60.789062 0-87.308593-10.617187-16.304688-40.578124-58.164063-89.347656-94.628907-49.441406-36.964843-101-55.710937-153.246094-55.710937-52.175781 0-103.777343 18.695312-153.378906 55.558594-48.984375 36.410156-79.1875 78.21875-89.902344 94.503906-17.550781 26.6875-17.550781 61.175781 0 87.863281 10.714844 16.285156 40.917969 58.09375 89.902344 94.503906 49.601563 36.867188 101.203125 55.558594 153.378906 55.558594 80.324219 0 144.914063-44.789063 184.957032-82.359375 8.054687-7.558594 8.457031-20.214844.898437-28.269531zm-422.285156-220.359375c11.046875 0 20-8.953125 20-20v-50c0-5.511719 4.484375-9.996094 10-9.996094h50c11.042969 0 19.996094-8.957031 19.996094-20 0-11.046875-8.953125-20-19.996094-20h-50c-27.570313 0-50 22.429688-50 49.996094v50c0 11.046875 8.957031 20 20 20zm80 351.988281h-50c-5.515625 0-10-4.488281-10-10v-50c0-11.042969-8.953125-20-20-20-11.042969 0-20 8.957031-20 20v50c0 27.566406 22.429687 49.996094 50 49.996094h50c11.042969 0 19.996094-8.953125 19.996094-20 0-11.042969-8.953125-19.996094-19.996094-19.996094zm361.984375-471.984375h-49.996094c-11.046875 0-20 8.953125-20 20 0 11.042969 8.953125 20 20 20h49.996094c5.515625 0 10 4.484375 10 9.996094v50c0 11.046875 8.953125 20 20 20s20-8.953125 20-20v-50c0-27.566406-22.429688-49.996094-50-49.996094zm30 391.984375c-11.046875 0-20 8.957031-20 20v50c0 5.511719-4.484375 10-10 10h-49.996094c-11.046875 0-20 8.953125-20 19.996094 0 11.046875 8.953125 20 20 20h49.996094c27.570312 0 50-22.429688 50-49.996094v-50c0-11.042969-8.953125-20-20-20zm0 0" data-original="#000000" class="active-path" data-old_color="#000000" fill="#052D4A"/></g> </svg>
