<?xml version="1.0"?>
<svg xmlns="http://www.w3.org/2000/svg" id="Capa_1" enable-background="new 0 0 512 512" height="512px" viewBox="0 0 512 512" width="512px"><g><path d="m497 90c8.284 0 15-6.716 15-15v-30c0-24.813-20.187-45-45-45h-182c-24.813 0-45 20.187-45 45v90.786c-13.224-12.426-29.995-21.117-48.614-24.368 8.549-11.606 13.614-25.929 13.614-41.418 0-38.599-31.402-70-70-70s-70 31.401-70 70c0 15.489 5.065 29.812 13.614 41.419-44.602 7.787-78.614 46.785-78.614 93.581v110c0 24.813 20.187 45 45 45 5.258 0 10.305-.915 15-2.58v109.58c0 24.813 20.187 45 45 45 11.517 0 22.032-4.354 30-11.495 7.968 7.142 18.483 11.495 30 11.495 24.813 0 45-20.187 45-45v-109.58c4.695 1.665 9.742 2.58 15 2.58s10.305-.915 15-2.58v47.58c0 24.813 20.187 45 45 45h182c24.813 0 45-20.187 45-45v-30c0-8.284-6.716-15-15-15h-45v-270zm-15-30h-30v-15c0-8.271 6.729-15 15-15s15 6.729 15 15zm-347-30c22.056 0 40 17.944 40 40s-17.944 40-40 40-40-17.944-40-40 17.944-40 40-40zm90 300c-8.271 0-15-6.729-15-15v-106.667c0-8.284-6.716-15-15-15s-15 6.716-15 15v106.667c0 .447.021.888.034 1.331-.01.223-.034.443-.034.669v150c0 8.271-6.729 15-15 15s-15-6.729-15-15v-150c0-8.284-6.716-15-15-15s-15 6.716-15 15v150c0 8.271-6.729 15-15 15s-15-6.729-15-15v-258.667c0-8.284-6.716-15-15-15s-15 6.716-15 15v106.667c0 8.271-6.729 15-15 15s-15-6.729-15-15v-110c0-35.841 29.159-65 65-65h80c35.841 0 65 29.159 65 65v110c0 8.271-6.729 15-15 15zm199.57 90h-139.57c-8.271 0-15-6.729-15-15v-360c0-8.271 6.729-15 15-15h139.57c-1.664 4.693-2.57 9.743-2.57 15v360c0 5.257.906 10.307 2.57 15zm57.43-30v15c0 8.271-6.729 15-15 15s-15-6.729-15-15v-15z" data-original="#000000" class="active-path" data-old_color="#000000" fill="#052D4A"/><path d="m377 60h-62c-8.284 0-15 6.716-15 15s6.716 15 15 15h62c8.284 0 15-6.716 15-15s-6.716-15-15-15z" data-original="#000000" class="active-path" data-old_color="#000000" fill="#052D4A"/><path d="m377 120h-62c-8.284 0-15 6.716-15 15s6.716 15 15 15h62c8.284 0 15-6.716 15-15s-6.716-15-15-15z" data-original="#000000" class="active-path" data-old_color="#000000" fill="#052D4A"/><path d="m377 180h-62c-8.284 0-15 6.716-15 15s6.716 15 15 15h62c8.284 0 15-6.716 15-15s-6.716-15-15-15z" data-original="#000000" class="active-path" data-old_color="#000000" fill="#052D4A"/><path d="m377 240h-62c-8.284 0-15 6.716-15 15s6.716 15 15 15h62c8.284 0 15-6.716 15-15s-6.716-15-15-15z" data-original="#000000" class="active-path" data-old_color="#000000" fill="#052D4A"/><path d="m377 300h-62c-8.284 0-15 6.716-15 15s6.716 15 15 15h62c8.284 0 15-6.716 15-15s-6.716-15-15-15z" data-original="#000000" class="active-path" data-old_color="#000000" fill="#052D4A"/><path d="m377 360h-62c-8.284 0-15 6.716-15 15s6.716 15 15 15h62c8.284 0 15-6.716 15-15s-6.716-15-15-15z" data-original="#000000" class="active-path" data-old_color="#000000" fill="#052D4A"/></g> </svg>
