<?xml version="1.0"?>
<svg xmlns="http://www.w3.org/2000/svg" id="Layer_1" enable-background="new 0 0 512 512" height="512px" viewBox="0 0 512 512" width="512px" class=""><g><g><path d="m436.041 0h-360.082c-8.284 0-15 6.716-15 15v482c0 8.284 6.716 15 15 15h360.082c8.284 0 15-6.716 15-15v-482c0-8.284-6.716-15-15-15zm-15 68.828-38.828-38.828h38.828zm-60.041-17.615 38.787 38.787h-38.787zm-270.041 430.787v-452h240.041v75c0 8.284 6.716 15 15 15h75.041v362z" data-original="#000000" class="active-path" data-old_color="#000000" fill="#052D4A"/><path d="m136 214h104c8.284 0 15-6.716 15-15v-12c0-23.401-12.068-44.026-30.298-56.012 5.217-7.346 8.298-16.312 8.298-25.988 0-24.813-20.187-45-45-45s-45 20.187-45 45c0 9.677 3.081 18.642 8.298 25.989-18.23 11.985-30.298 32.61-30.298 56.011v12c0 8.284 6.716 15 15 15zm52-124c8.271 0 15 6.729 15 15s-6.729 15-15 15-15-6.729-15-15 6.729-15 15-15zm0 60c19.392 0 35.348 14.996 36.88 34h-73.76c1.532-19.004 17.488-34 36.88-34z" data-original="#000000" class="active-path" data-old_color="#000000" fill="#052D4A"/><path d="m375.997 244h-239.997c-8.284 0-15 6.716-15 15s6.716 15 15 15h239.997c8.284 0 15-6.716 15-15s-6.716-15-15-15z" data-original="#000000" class="active-path" data-old_color="#000000" fill="#052D4A"/><path d="m375.997 304h-239.997c-8.284 0-15 6.716-15 15s6.716 15 15 15h239.997c8.284 0 15-6.716 15-15s-6.716-15-15-15z" data-original="#000000" class="active-path" data-old_color="#000000" fill="#052D4A"/><path d="m375.997 364h-239.997c-8.284 0-15 6.716-15 15s6.716 15 15 15h239.997c8.284 0 15-6.716 15-15s-6.716-15-15-15z" data-original="#000000" class="active-path" data-old_color="#000000" fill="#052D4A"/><path d="m240.988 424h-104.988c-8.284 0-15 6.716-15 15s6.716 15 15 15h104.988c8.284 0 15-6.716 15-15s-6.716-15-15-15z" data-original="#000000" class="active-path" data-old_color="#000000" fill="#052D4A"/></g></g> </svg>
